:SAMPLES-PER-SECOND 30
:FULLY-SPECIFIED
:DEGREES
1542
root  -57.062 40.5147 27.911 -179.557 41.4841 178.404
RightUpLeg  -15.0096 -30.8123 -4.88591
RightLeg  20.4908 -8.00127 -3.50975
RightFoot  -4.15243 -0.0226396 -0.0818261
RightToes  0.000482159 0.542163 -0.142577
Spine  10.9908 1.46599 3.59112
Spine1  8.07685 3.06016 -5.10742
HEad  1.16304 -10.0194 0.608481
LeftShoulder1  7.34598 -11.3267 -43.0645
LeftArm  -18.2528 20.7415 -24.5538
LeftForeArm  35.4256 -38.827 -6.80282
LeftHand  -0.25398 0.0180481 5.50724
RightShoulder  5.61276 9.79226 36.227
RightArm  0.253599 -21.2095 36.4642
RightForeArm  0.888338 25.5148 5.39063
RightHand  -1.21018 2.08625 -18.8814
LeftUpLeg  5.97424 13.3613 16.8098
LeftLeg  4.73404 47.6042 -1.61796
LeftFoot  3.11999 1.04739 -8.27167
LeftToes  1.06246e-005 4.65854e-005 -8.18502e-006
1543
root  -55.9336 40.4436 28.0356 179.833 44.3811 178.591
RightUpLeg  -13.9224 -28.8313 -3.83649
RightLeg  21.7874 -7.53714 -3.52147
RightFoot  -6.53303 -0.0137334 -0.703406
RightToes  0.000482159 0.542163 -0.142577
Spine  10.7448 1.38789 4.43732
Spine1  8.14393 2.93523 -4.63543
HEad  1.70126 -8.22338 -0.362303
LeftShoulder1  7.41858 -11.3595 -43.4137
LeftArm  -16.7828 21.9861 -24.7218
LeftForeArm  35.798 -37.4652 -6.40494
LeftHand  -0.25398 0.0180481 5.50724
RightShoulder  5.62132 9.53426 37.1071
RightArm  2.64209 -17.2934 35.3294
RightForeArm  0.217924 21.9268 5.07335
RightHand  -1.29827 2.41335 -19.4095
LeftUpLeg  6.04548 14.0956 17.519
LeftLeg  9.66203 43.7957 2.59835
LeftFoot  -1.63654 0.278198 -2.99563
LeftToes  1.06246e-005 4.65854e-005 -8.18502e-006
1544
root  -54.8933 40.3972 28.1726 178.899 46.8835 178.389
RightUpLeg  -12.6311 -26.6213 -3.22348
RightLeg  22.8294 -7.56551 -3.7008
RightFoot  -8.53066 -0.0330572 -1.01512
RightToes  0.000482159 0.542163 -0.142577
Spine  11.0267 1.29394 4.77012
Spine1  8.04352 2.7415 -3.82156
HEad  2.01842 -5.88297 -1.00109
LeftShoulder1  7.5561 -11.4698 -43.92
LeftArm  -15.4412 22.3698 -25.258
LeftForeArm  36.3767 -35.0745 -5.74726
LeftHand  -0.25398 0.0180481 5.50724
RightShoulder  5.59459 9.11035 38.2939
RightArm  1.06014 -12.1628 33.9687
RightForeArm  4.08336 16.4997 6.13376
RightHand  -1.35067 2.66943 -19.5578
LeftUpLeg  4.68105 17.6072 16.9334
LeftLeg  14.2961 31.2786 5.63954
LeftFoot  -6.12498 -0.0680459 2.00969
LeftToes  1.06246e-005 4.65854e-005 -8.18502e-006
1545
root  -53.9439 40.362 28.2486 178.002 49.2816 178.328
RightUpLeg  -11.1479 -24.4116 -2.63901
RightLeg  23.4984 -7.35108 -3.71922
RightFoot  -9.95108 -0.0481877 -1.58335
RightToes  0.000482159 0.542163 -0.142577
Spine  11.3059 1.16831 5.79833
Spine1  8.40557 2.79627 -3.56131
HEad  2.10493 -4.00883 -1.32988
LeftShoulder1  7.68747 -11.6879 -44.0505
LeftArm  -13.9299 21.8693 -26.5718
LeftForeArm  36.3519 -31.6131 -4.90321
LeftHand  -0.25398 0.0180481 5.50724
RightShoulder  5.71207 9.12679 39.1295
RightArm  -4.76289 -7.14449 33.3019
RightForeArm  10.2396 10.4312 7.17792
RightHand  -1.34492 2.62011 -19.5916
LeftUpLeg  2.17097 21.2855 15.3391
LeftLeg  18.8465 15.4938 6.13409
LeftFoot  -8.68887 -0.00535704 2.25614
LeftToes  1.06246e-005 4.65854e-005 -8.18502e-006
1546
root  -53.0315 40.3512 28.2355 177.382 51.7209 178.374
RightUpLeg  -9.37348 -22.8356 -2.15038
RightLeg  23.4273 -6.65031 -3.33456
RightFoot  -11.0454 -0.0690741 -2.07404
RightToes  0.000482159 0.542163 -0.142577
Spine  11.2378 1.08592 7.54116
Spine1  9.00616 3.16301 -3.99516
HEad  2.52235 -3.4369 -1.33786
LeftShoulder1  7.77425 -11.9294 -43.8406
LeftArm  -11.937 21.1152 -28.1995
LeftForeArm  35.7723 -28.2225 -4.16267
LeftHand  -0.25398 0.0180481 5.50724
RightShoulder  5.88049 9.50371 39.1181
RightArm  -8.8408 -3.50825 33.8638
RightForeArm  11.453 6.44831 6.61238
RightHand  -1.36122 2.57709 -19.9194
LeftUpLeg  -1.17218 18.7028 12.8657
LeftLeg  24.3005 8.95823 4.79294
LeftFoot  -9.28376 0.0711895 -0.733885
LeftToes  1.06246e-005 4.65854e-005 -8.18502e-006
